<svg height="48pt" viewBox="0 0 48 48" width="48pt" xmlns="http://www.w3.org/2000/svg" xmlns:xlink="http://www.w3.org/1999/xlink"><linearGradient id="a" gradientUnits="userSpaceOnUse" x1="2" x2="46" y1="24" y2="24"><stop offset="0" stop-color="#f96"/><stop offset=".98260869565" stop-color="#ff5e62"/></linearGradient><path d="m41.999 25.34c.083-1.098 1.046-1.925 2.148-1.845 1.102.08 1.93 1.041 1.847 2.145-.41 5.53-2.903 10.71-6.978 14.49-4.075 3.77-9.432 5.87-14.989 5.87-5.837 0-11.444-2.32-15.579-6.44-4.125-4.13-6.448-9.73-6.448-15.56s2.323-11.43 6.448-15.56c4.135-4.12 9.742-6.44 15.579-6.44 1.105 0 2.003.896 2.003 2 0 1.104-.898 2-2.003 2-4.776 0-9.361 1.9-12.746 5.27-3.374 3.38-5.276 7.96-5.276 12.73s1.902 9.35 5.276 12.73c3.385 3.37 7.97 5.27 12.746 5.27 4.546 0 8.931-1.71 12.265-4.8s5.367-7.33 5.707-11.86zm-9.591-17.28c-.979-.513-1.355-1.723-.842-2.7.514-.977 1.726-1.353 2.704-.84 4.165 2.19 7.529 5.66 9.582 9.89.486.993.073 2.192-.922 2.675-.994.483-2.197.068-2.683-.925-1.682-3.47-4.425-6.3-7.839-8.1zm-12.082 22.594s-1.07.622.762.832c2.218.253 3.352.217 5.797-.245 0 0 .644.403 1.542.752-5.482 2.348-12.407-.136-8.102-1.339zm-.671-3.066s-1.199.889.633 1.078c2.371.245 4.242.265 7.482-.359 0 0 .447.454 1.151.703-6.627 1.938-14.007.152-9.266-1.422zm5.647-5.2c1.351 1.555-.355 2.954-.355 2.954s3.43-1.77 1.855-3.988c-1.471-2.067-2.599-3.094 3.507-6.635 0 0-9.585 2.393-5.007 7.669zm7.25 10.533s.791.653-.872 1.157c-3.164.959-13.169 1.248-15.948.039-.998-.435.875-1.038 1.464-1.165.614-.133.965-.109.965-.109-1.111-.782-7.181 1.537-3.083 2.202 11.176 1.811 20.372-.816 17.473-2.124zm-11.712-8.509s-5.089 1.209-1.802 1.648c1.388.186 4.154.143 6.732-.073 2.106-.177 4.22-.555 4.22-.555s-.742.319-1.279.685c-5.169 1.36-15.152.727-12.277-.663 2.429-1.176 4.406-1.042 4.406-1.042zm9.129 5.102c5.254-2.729 2.824-5.352 1.129-4.999-.415.087-.601.161-.601.161s.155-.242.449-.346c3.354-1.178 5.933 3.478-1.082 5.322 0 0 .081-.073.105-.138zm-3.167-20.514s2.909 2.91-2.76 7.385c-4.545 3.59-1.036 5.637-.001 7.976-2.654-2.394-4.6-4.502-3.295-6.463 1.917-2.879 7.23-4.275 6.056-8.898zm-5.446 27.912c5.042.323 12.786-.179 12.97-2.565 0 0-.353.904-4.167 1.622-4.304.81-9.613.716-12.761.196 0 0 .645.534 3.958.747z" fill="url(#a)" fill-rule="evenodd"/></svg>