<svg height="48pt" viewBox="0 0 48 48" width="48pt" xmlns="http://www.w3.org/2000/svg" xmlns:xlink="http://www.w3.org/1999/xlink"><linearGradient id="a" gradientUnits="userSpaceOnUse" x1="2" x2="41.929472" y1="24" y2="42.483432"><stop offset="0" stop-color="#00c4ff"/><stop offset=".83888397938" stop-color="#0072ff"/></linearGradient><path d="m6.001 22.66c-.083 1.098-1.046 1.925-2.148 1.845-1.102-.08-1.93-1.041-1.847-2.145.41-5.53 2.903-10.71 6.978-14.49 4.075-3.77 9.432-5.87 14.989-5.87 5.837 0 11.444 2.32 15.579 6.44 4.125 4.13 6.448 9.73 6.448 15.56s-2.323 11.43-6.448 15.56c-4.135 4.12-9.742 6.44-15.579 6.44-1.105 0-2.003-.896-2.003-2 0-1.104.898-2 2.003-2 4.776 0 9.361-1.9 12.746-5.27 3.374-3.38 5.276-7.96 5.276-12.73s-1.902-9.35-5.276-12.73c-3.385-3.37-7.97-5.27-12.746-5.27-4.546 0-8.931 1.71-12.265 4.8s-5.367 7.33-5.707 11.86zm9.591 17.28c.979.513 1.355 1.723.842 2.7-.514.977-1.726 1.353-2.704.84-4.165-2.19-7.529-5.66-9.582-9.89-.486-.993-.073-2.192.922-2.675.994-.483 2.197-.068 2.683.925 1.682 3.47 4.425 6.3 7.839 8.1zm19.473-5.022c-.149-.097-.963-.561-1.809-1.033-1.761-.981-3.518-2.482-3.518-3.007 0-.466.576-.838 1.457-.942.422-.049.976-.131 1.231-.18l.463-.091-.686-.501c-.65-.474-1.152-.71-2.626-1.23-.954-.336-1.646-1.121-2.426-2.749-2.032-4.241-2.408-4.938-3.099-5.739-.777-.9-1.899-1.839-3.406-2.849-1.479-.992-1.71-1.081-2.777-1.081-.85 0-1.029-.047-1.558-.41-.836-.572-1.666-.926-2.181-.929-.663-.005-.585.469.248 1.498.808.998.999 1.341 1.401 2.517.166.484.614 1.421.995 2.082s.693 1.261.693 1.332-.16.587-.355 1.146c-.429 1.229-.548 2.544-.318 3.518.4 1.691.89 1.922 1.169.549.243-1.191.661-1.911 1.11-1.908.137.001.577.677 1.226 1.884.556 1.036 1.36 2.344 1.786 2.908.426.563.747 1.051.713 1.084-.08.08-1.182-.849-1.985-1.673-.348-.357-.847-1.004-1.109-1.439-.452-.75-.482-.774-.597-.47-.067.177-.164.515-.216.751-.149.682-.565 1.114-1.073 1.114-.711 0-1.221-.714-1.636-2.288-.277-1.051-.207-3.289.138-4.405.223-.719.223-.72-.108-1.073-.427-.454-.67-.941-1.195-2.394-.332-.922-.64-1.453-1.404-2.428-.687-.876-1.005-1.405-1.068-1.775-.195-1.149.249-1.817 1.197-1.796.732.016 2.231.517 2.877.962.381.263.762.377 1.5.451 1.813.181 3.79 1.336 5.863 3.426 2.008 2.025 3.52 4.412 4.082 6.444.377 1.362.972 2.005 2.606 2.814 1.2.594 1.569.864 2.658 1.944.695.689 1.265 1.355 1.265 1.48 0 .274-.565.47-1.686.583-1.572.159-1.56.128-.383.963 2.006 1.423 2.727 2.117 2.94 2.828.102.34-.005.37-.399.112zm-17.263-17.039c-.11-.261-.321-.54-.47-.619-.315-.168-.348-.439-.079-.661.288-.239 1.125.148 1.231.569.252 1-.313 1.59-.682.711z" fill="url(#a)" fill-rule="evenodd"/></svg>